<svg version="1.0" xmlns="http://www.w3.org/2000/svg"
 width="150px" height="150px" viewBox="0 0 200.000000 200.000000"
 preserveAspectRatio="xMidYMid meet">
<g transform="translate(0.000000,200.000000) scale(0.100000,-0.100000)">
  <!-- Cercle extérieur (bleu) -->
  <path d="M851 1989 c-197 -25 -399 -127 -552 -279 -129 -127 -228 -302 -270
  -476 -29 -119 -32 -322 -6 -444 70 -325 293 -590 602 -715 476 -192 1025 11
  1260 466 142 275 148 603 15 886 -188 401 -597 621 -1049 562z"
  fill="#002687" stroke="none"/>

  <!-- Symbole intérieur (blanc) -->
  <path d="M848 1383 c38 -54 126 -169 195 -256 69 -87 132 -168 139 -179 16 -24 15 -25
  221 336 56 99 110 184 120 190 22 13 22 13 147 -159 44 -60 80 -116 80 -123 0 -7 -57
  -115 -127 -240 -70 -125 -145 -261 -168 -302 l-42 -75 -197 -3 c-194 -2 -196 -2 -196
  19 0 12 32 77 70 145 39 68 70 128 70 134 0 13 -187 253 -200 258 -10 4 -45 -54 -202
  -340 l-120 -218 -189 0 c-177 0 -188 1 -194 20 -7 22 -1 34 110 230 45 80 131 231 190
  335 179 316 184 325 204 325 13 0 43 -34 89 -97z"
  fill="white" stroke="none"/>
</g>
</svg>
